<?xml version="1.0" encoding="UTF-8" standalone="no"?>
<svg
   xmlns:dc="http://purl.org/dc/elements/1.1/"
   xmlns:cc="http://creativecommons.org/ns#"
   xmlns:rdf="http://www.w3.org/1999/02/22-rdf-syntax-ns#"
   xmlns:svg="http://www.w3.org/2000/svg"
   xmlns="http://www.w3.org/2000/svg"
   xmlns:sodipodi="http://sodipodi.sourceforge.net/DTD/sodipodi-0.dtd"
   xmlns:inkscape="http://www.inkscape.org/namespaces/inkscape"
   sodipodi:docname="drawing.svg"
   inkscape:version="1.0 (4035a4fb49, 2020-05-01)"
   id="svg8"
   version="1.1"
   viewBox="0 0 130 130"
   height="130mm"
   width="130mm">
  <defs
     id="defs2" />
  <sodipodi:namedview
     inkscape:window-maximized="1"
     inkscape:window-y="-8"
     inkscape:window-x="-8"
     inkscape:window-height="1017"
     inkscape:window-width="1920"
     showgrid="false"
     inkscape:document-rotation="0"
     inkscape:current-layer="layer1"
     inkscape:document-units="mm"
     inkscape:cy="357.52894"
     inkscape:cx="313.6217"
     inkscape:zoom="0.7"
     inkscape:pageshadow="2"
     inkscape:pageopacity="0.0"
     borderopacity="1.0"
     bordercolor="#666666"
     pagecolor="#ffffff"
     id="base" />
  <metadata
     id="metadata5">
    <rdf:RDF>
      <cc:Work
         rdf:about="">
        <dc:format>image/svg+xml</dc:format>
        <dc:type
           rdf:resource="http://purl.org/dc/dcmitype/StillImage" />
        <dc:title></dc:title>
      </cc:Work>
    </rdf:RDF>
  </metadata>
  <g
     id="layer1"
     inkscape:groupmode="layer"
     inkscape:label="Layer 1">
    <circle
       r="64.550262"
       cy="64.986946"
       cx="64.841736"
       id="path861"
       style="fill:#5599ff;stroke:none;stroke-width:8.74876;stroke-linecap:square;stroke-linejoin:round;paint-order:fill markers stroke;opacity:0" />
    <path
       style="fill:#1a1c1d;stroke-width:0.258201"
       d="m 57.072083,129.23885 c -14.787574,-1.8442 -27.263056,-7.98721 -37.970929,-18.69713 -1.499567,-1.49986 -3.644181,-3.87411 -4.765808,-5.27612 l -2.039323,-2.54911 0.634592,-0.52175 c 1.081564,-0.88926 4.666863,-2.482975 6.812504,-3.028247 1.165082,-0.296091 3.69563,-0.624493 5.874756,-0.762414 2.105436,-0.133247 3.972394,-0.331477 4.148794,-0.440502 0.176404,-0.109025 3.574667,-0.287571 7.551699,-0.396781 3.977029,-0.109206 7.666678,-0.271766 8.199218,-0.361241 0.690765,-0.116062 0.968254,-0.06986 0.968254,0.161221 0,0.178148 0.398845,1.15314 0.886322,2.166647 2.09041,4.346137 6.883704,7.939097 13.451662,10.083097 3.269346,1.06722 3.579722,1.06934 6.639949,0.0453 4.715911,-1.57805 8.045553,-3.55052 10.384051,-6.15149 1.19354,-1.32751 2.741695,-4.058616 3.067621,-5.411622 l 0.163553,-0.678931 7.426169,0.119471 c 4.488348,0.07221 8.369918,0.264188 9.811747,0.485283 1.312078,0.201197 3.303526,0.365818 4.425446,0.365818 3.7185,0 7.84274,1.102537 10.96181,2.930431 1.44848,0.84887 2.75415,1.93561 2.75415,2.29234 0,0.83234 -6.75955,8.05284 -10.58624,11.30814 -5.26226,4.47653 -13.574221,9.16372 -20.116181,11.34372 -3.799503,1.26613 -6.49595,1.91866 -10.867945,2.63 -4.286901,0.69751 -13.547036,0.87623 -17.815871,0.34385 z"
       id="path849" />
    <path
       sodipodi:nodetypes="sssssssscscssssssscscssssssscssssssssssscsssssscsssssssssssss"
       style="fill:#22221c;stroke-width:0.258201"
       d="m 41.352427,69.392278 c -0.290352,-0.469799 -0.740105,-1.328124 -0.999451,-1.90739 -0.259344,-0.579267 -0.842594,-1.365437 -1.296115,-1.747048 -1.835636,-1.544586 -2.3159,-5.4987 -2.243508,-18.471273 0.04798,-8.597705 0.174518,-9.446099 1.948313,-13.062595 2.289073,-4.667077 6.31143,-7.884074 11.861105,-9.486272 1.192331,-0.344228 2.211975,-0.75817 2.265876,-0.919872 0.0539,-0.161702 -0.273159,-0.640719 -0.726799,-1.064484 -0.800503,-0.747782 -0.806882,-0.77045 -0.216543,-0.769514 0.334543,5.42e-4 0.971884,0.222693 1.416315,0.493694 l 0.808053,0.49273 0.288333,-0.632823 c 0.600854,-1.318732 4.028089,-4.485782 4.854304,-4.485782 0.101687,0 -0.180591,0.377618 -0.627285,0.839154 -0.758289,0.783485 -1.612942,2.395965 -1.612942,3.043151 0,0.156241 0.359447,0.01474 0.79877,-0.314459 2.26534,-1.697464 3.326035,-2.316662 4.744387,-2.769607 2.09704,-0.669681 3.493879,-0.890264 3.493879,-0.551738 0,0.148446 -0.203334,0.277032 -0.451852,0.285747 -0.248519,0.0087 -1.032805,0.292622 -1.742857,0.630902 l -1.291005,0.615055 1.161905,-0.179049 c 0.639047,-0.09848 2.381904,-0.17905 3.873015,-0.17905 4.35982,0 6.297278,0.666881 2.972029,1.022984 -0.921574,0.09869 -1.728718,0.265403 -1.793651,0.370467 -0.06494,0.105063 1.305684,0.325203 3.045817,0.4892 4.56737,0.430445 8.169455,1.24206 8.169455,1.840726 0,0.137744 -0.53136,0.285859 -1.1808,0.329142 l -1.180799,0.07869 2.149053,1.549206 c 2.705221,1.950135 6.278616,5.530434 7.385794,7.400065 1.0306,1.740315 2.184464,5.061037 2.927871,8.426163 0.480682,2.175881 0.569331,3.565269 0.672851,10.545883 0.154392,10.410908 -0.208641,12.809882 -2.152818,14.226115 -0.380792,0.277388 -1.111093,1.364836 -1.622889,2.416547 -0.530815,1.090794 -1.117551,1.946702 -1.365897,1.992513 -0.400883,0.07394 -0.443134,-0.713253 -0.533554,-9.94074 C 85.046097,49.315243 84.97143,48.641628 83.757345,47.42754 83.221793,46.891988 82.8302,46.750166 81.887018,46.750166 c -0.656123,0 -1.598848,-0.111244 -2.094949,-0.24721 l -0.901999,-0.24721 1.015743,0.896575 c 0.558656,0.493118 1.459133,1.02942 2.001058,1.191784 0.541923,0.162365 0.985316,0.375907 0.985316,0.474539 0,0.291765 -4.105348,-0.501366 -6.16586,-1.191213 -1.048048,-0.350879 -1.955214,-0.58829 -2.015924,-0.527581 -0.260972,0.260974 1.674351,1.323011 3.370925,1.849848 l 1.841546,0.57185 -1.268758,0.199175 c -2.879822,0.452088 -8.595794,-0.513334 -12.320019,-2.080837 -2.433532,-1.024259 -7.990808,-3.840102 -10.991269,-5.569217 -1.448126,-0.834532 -2.750792,-1.517328 -2.894808,-1.517328 -0.676737,0 -0.973225,3.200613 -0.415007,4.480061 0.197165,0.451909 0.166705,0.456322 -0.559119,0.08098 -0.426034,-0.220312 -1.045822,-0.921334 -1.392749,-1.5753 -0.343808,-0.648085 -0.702715,-1.178336 -0.79757,-1.178336 -0.09486,0 -1.035027,0.576919 -2.089275,1.282043 -2.061602,1.378884 -2.988794,2.498972 -3.880803,4.688197 -0.543813,1.334657 -0.568985,1.786401 -0.649286,11.651981 -0.08956,11.002097 -0.133327,11.316093 -1.311784,9.409309 z"
       id="path851" />
  </g>
</svg>
